<svg xmlns="http://www.w3.org/2000/svg" width="213.0989011392084" height="154.19780227841704">

<path fill="#ffffff" d="M137.6977818608284,28.21590642023085 C109.1977818608284,21.843906420230837 99.1977818608284,21.087906420230865 72.6977818608284,28.087906420230865 s-65,-10.5 -73.25,-18.25 c3.5,6.75 2,12 3.75,17.75 s5,21.334 0.5,41.501 s-1.6670000000000007,35.666 -0.5,40.166 c0.785,3.029 2.326,5.001 1.419,8.813 C16.1977818608284,129.58790642023087 35.0317818608284,152.58790642023087 105.11478186082837,152.58790642023087 s86.417,-20.498 98.75,-33.499 c-1.6660000000000008,-4.5 -0.501,-12 2.499,-21.167 s-3.499,-44.667 -3.833,-52.833 s2.501,-21.5 2.7510000000000003,-27.584 s4.25,-13.25 5.5,-16.5 C190.3657818608284,25.42190642023087 166.1977818608284,34.587906420230865 137.6977818608284,28.21590642023085 z" style="" id="svg_1" class="selected" fill-opacity="1" stroke="#000000" stroke-opacity="1"/></svg>