<svg xmlns="http://www.w3.org/2000/svg" width="255.2087860107422" height="233.3186798095703">

<path fill="#ffffff" d="M251.42306643724442,57.73625564575195 c-2.018,-20.749 -37.75,-48.25 -48.562,-51.137 c-4.605,0.4470000000000002 -9.488,0.37600000000000017 -14.438,-0.36300000000000016 c-12.805,-1.911 -47,-1.6670000000000007 -50.833,4.333 s-15.5,5.833 -19.667,0 s-29.667,-4.5 -45.333,-3.6670000000000007 c-5.2940000000000005,0.281 -10.873,-0.6740000000000006 -16.059,-2.159 c-8.004,3.48 -46.033,26.426 -52.127,58.308 c-0.459,2.402 -0.7440000000000003,4.852 -0.8140000000000003,7.351 c-1,35.667 0.003000000000000003,72.11 -0.1650000000000001,85.722 c0.3830000000000002,-0.09600000000000009 9.666,25.111 12.166,30.778 S20.673066437244415,204.73625564575195 24.173066437244415,211.48625564575195 C32.423066437244415,219.23625564575195 70.92306643724442,236.73625564575195 97.42306643724442,229.73625564575195 s36.5,-6.244 65,0.128 s52.668,-2.794 73.084,-27.211 c1.25,-3.25 4.75,-11.75 5.333,-15 s2.6670000000000007,-6.999 4.084,-9.749 s7.455,-21.675 8.005,-21.176 C253.6010664372444,143.38625564575193 252.59006643724445,69.73725564575193 251.42306643724442,57.73625564575195 z" style="" id="svg_1" class="selected" fill-opacity="1" stroke="#000000" stroke-opacity="1"/></svg>