<svg xmlns="http://www.w3.org/2000/svg" width="116" height="168.19780227841704" style="">
<path d="M112.92739588880539,53.61538380384445 C111.2613958888054,21.615383803844452 76.59339588880539,2.615383803844452 57.59339588880539,2.615383803844452 c-30.833,0 -50.167,31.5 -53.167,44.5 c-1.915,8.295 -2.833,23.5 -2.5,28.167 s1,12.333 0.6670000000000003,16.167 c2.04,7.695 6.667,23 6.667,33 c0.6670000000000003,5.167 1.167,12.5 3.333,18.833 c3,4 22.5,23.333 44.167,23.333 s36.5,-8.667 45.708,-23 c2.625,-5.625 5,-15.25 4.75,-18.625 c-0.7080000000000002,-5.125 4.708,-28.042 5.709,-32.708 C113.59439588880537,84.94938380384446 114.59339588880539,85.61538380384445 112.92739588880539,53.61538380384445 z" id="svg_1" class="" fill="#FFFFFF" fill-opacity="1" stroke="#000000" stroke-opacity="1"/></svg>