<svg xmlns="http://www.w3.org/2000/svg" width="90.24175671007515" height="155.41757810468494">

<path fill="#ffffff" d="M88.20545846652982,11.61204547119138 c0.07,-2.499 0.35400000000000015,-4.949 0.8140000000000003,-7.351 c-14.58,24.029 -45.423,27.768 -58.288,43.156 c-0.43700000000000017,6.049 -2.914,8.093 -7.442,14.778 C18.038458466529846,69.9450454711914 8.038458466529846,101.4450454711914 4.538458466529846,113.4450454711914 c-0.507,1.738 -0.8960000000000004,3.229 -1.221,4.551 c-1.413,17.735 10.718,25.876 24.421,31.618 c11.394,4.774 24.501,8.306000000000001 33.45,1.5430000000000001 c0.7110000000000003,-1.544 1.6340000000000003,-3.368 2.85,-5.712 c3.5,-6.75 23.363,-47.953 24.001,-48.111 C88.20745846652983,83.7220454711914 87.20545846652982,47.27904547119141 88.20545846652982,11.61204547119138 z" style="" id="svg_1" class="" fill-opacity="1" stroke="#000000" stroke-opacity="1"/></svg>