<svg xmlns="http://www.w3.org/2000/svg" width="111.769224561883" height="148.25274165001133">
<path fill="#FFFFFF" fill-opacity="1"  d="M109.73409777450561,27.123008911132843 c0.09600000000000009,-0.975 0.3440000000000003,-2.156 0.7050000000000003,-3.481 c-14.027,-10.755 -33.958,-19.024 -43.015,-19.44 c-1.911,1.612 -5.3260000000000005,3.042 -12.773,5.13 c-1.854,0.52 -3.833,1.291 -5.8740000000000006,2.231 c-12.688,5.84 -27.892,18.435 -31.876,21.019 c-4.625,3 -7.75,8.375 -11.875,10.5 s-4.125,8.625 0,10.5 s9.625,0.125 13,-1.5 s9.042,-8.457 15.5,-10.5 c3.7880000000000003,-1.198 7.625,-1.5 7.625,0.125 s-8.5,22.375 -9.125,25.5 s-3.875,13.875 -5.875,21.125 s-5.5,21.25 -6.75,29.25 s0.8750000000000003,11.75 5.125,12.625 s7.875,-7.625 8.646,-10.625 s2.854,-12.75 3.979,-15.5 s6.625,-18.75 8,-22 s2.375,-8.625 4.375,-7.75 s-0.37500000000000017,5.875 -1.75,9.75 S40.651097774505615,108.83100891113281 39.901097774505615,112.70600891113281 s-5,19.75 -5.25,22.5 s-1.875,8.75 2.75,10.5 s7.75,-1.875 9.5,-5.625 s5.375,-17.625 7.375,-26.125 s5.75,-19.5 7.125,-24 s2.125,-8 3.875,-7.875 s1.5,2.5 0.7500000000000003,4.75 S59.901097774505615,107.45600891113281 58.901097774505615,112.45600891113281 s-4.25,16.125 -5.375,20.375 s-1.75,9.25 2.5,10.75 s6.875,-1.5 8.75,-4.75 s7.875,-21.5 9.369,-27.125 s4.756,-18.5 6.131,-22.375 s2.5,-5.625 3.625,-5.5 s0.25,2.625 -1.125,7 s-5.375,18.5 -7.125,25 s-2.25,9.625 0,12 s7.083,-0.541 8.25,-2.541 s3,-11 5.667,-16.333 c1.6760000000000006,-3.352 3.669,-11.246 6.53,-19.381 c1.6910000000000007,-4.808 4.336,-9.699 5.636,-13.786 c0.35200000000000015,-1.106 0.6700000000000006,-2.172 0.973,-3.219 c2.707,-9.367 3.628,-16.586 6.027,-25.281 C111.40109777450562,37.62300891113284 108.90109777450562,35.62300891113284 109.73409777450561,27.123008911132843 z" id="svg_1" class="" stroke="#000000" stroke-opacity="1"/></svg>