<svg xmlns="http://www.w3.org/2000/svg" width="87.39559722087756" height="246.04394709570136">
<path fill="#FFFFFF" fill-opacity="1" d="M7.380958030700697,3.580294128418018 c0.0850000000000001,4.202 0.07200000000000002,8.622 -0.23900000000000013,13.122 c-1.393,20.15 -4.799,41.913 -4.109,52.957 c1,16 4.5,62 7.5,83 s6.875,83 7.125,87.5 c0.06000000000000005,1.082 0.008000000000000009,2.26 -0.10700000000000007,3.478 c6.992,-11.484 36.463,-9.869 44.754,-6.101 c-1.079,-3.858 -2.297,-10.522 -2.438,-15.043 c-0.16700000000000023,-5.333 7.5,-47.167 8.333,-58.333 s3.6670000000000007,-29.5 4.333,-33.333 s5.75,-17.168 9.5,-25.918 s3.5,-20 2.5,-27.25 s-3.75,-45.75 -4.5,-51.375 s-2.25,-13.125 -3.5,-15.125 c-0.6150000000000005,-0.984 -0.5630000000000005,-2.333 -0.24800000000000014,-3.6420000000000003 C58.4049580307007,24.803294128417974 17.971958030700705,48.02929412841797 7.380958030700697,3.580294128418018 z" id="svg_1" class="" stroke="#000000" stroke-opacity="1"/></svg>