<svg xmlns="http://www.w3.org/2000/svg" width="95.60439544316591" height="109.80219772158284" style="">
<path fill="#FFFFFF" fill-opacity="1" d="M45.03393640899657,5.183765991210976 c-1.15,7.047 -6.68,15.393 -10.854,23.742 c-4.375,8.75 -13,19.375 -21,28.25 c-2.286,2.536 -4.111,5.777 -5.548,9.185 c-3.593,8.519 -4.755,18.083 -4.577,20.315 c0.25,3.125 3.125,5.875 6.125,5.5 c0,1.125 1,2.875 4.25,2.5 c0.25,2 0,6.25 8.25,5 c4,4.875 7.875,4.625 10.75,1.75 c5.292,6.314 10.383000000000001,6.492 15.75,5.809 c4.375,-0.558 11.125,-7.809 12.25,-10.559 s2.25,-3.875 5.875,-6.75 c1.972,-1.5630000000000002 3.795,-4.086 5.156,-8.824 c0.6830000000000007,-2.376 1.247,-5.519 1.657,-8.232 c0.275,-1.824 0.4810000000000002,-3.456 0.6040000000000004,-4.525 c0.6670000000000007,-5.833 0.6670000000000007,-10.834 4.5,-21.334 c8.667,-3.6670000000000007 14,-10.333 15.5,-18.833 c0.11300000000000006,-0.6420000000000005 0.2150000000000001,-1.28 0.3110000000000002,-1.9180000000000001 C85.27593640899659,13.851765991210868 57.699936408996564,0.7607659912109739 45.03393640899657,5.183765991210976 z" id="svg_1" class="" stroke="#000000" stroke-opacity="1"/></svg>