<svg xmlns="http://www.w3.org/2000/svg" width="137.47252481223563" height="341">
<path fill="#FFFFFF" fill-opacity="1" d="M32.98633227539062,4.236250400543213 c-2.021,14.389 -3.102,29.611 -2.827,34 c0.5,8 -6.5,46 -11.5,70 c-3.981,19.107 -12.131,56.915 -14.375,92.478 c-0.5750000000000004,9.105 0.17200000000000001,18.063 0.3750000000000002,26.522 c0.8450000000000004,35.062 9.541,55.489 16.139,69.427 c35.654,13.2 53.799,56.767 88.484,34.358 c2.478,-11.204 8.03,-39.965 9.627,-52.285 c1.75,-13.5 10.083,-66.333 11.815,-88.167 s1.2690000000000001,-38.833 0.4350000000000002,-43.166 s-0.16700000000000018,-12.667 -0.4170000000000002,-21.334 s3.083,-10.166 4.083,-12.333 c-3.834,-8.171 -10.12,-17.359 -17.755,-26.864 C89.19733227539064,52.17525040054318 43.3263322753906,13.263250400543257 32.98633227539062,4.236250400543213 z" id="svg_1" class="" stroke="#000000" stroke-opacity="1"/></svg>