<svg xmlns="http://www.w3.org/2000/svg" width="195" height="95.29670341762565">

<path fill="#FFFFFF" fill-opacity="1" d="M39.07358569335935,86.57358569335938 c15.667,-0.8330000000000001 41.167,-2.166 45.333,3.6670000000000003 s15.834,6 19.667,0 s38.028,-6.245 50.833,-4.333 c4.95,0.7390000000000001 9.833,0.81 14.438,0.36300000000000004 c10.975999999999999,-1.066 20.373,-5.078 25.342,-10.017 c-8.889,0.08100000000000002 -18.524,-5.195 -31.03,-10.721 C147.53158569335938,58.406585693359375 139.03158569335938,49.656585693359375 138.40658569335938,46.906585693359375 s0.125,-34.5 0.8750000000000001,-44.5 c-9.208,14.333 -24.041,23 -45.708,23 S52.406585693359375,6.073585693359377 49.406585693359375,2.0735856933593766 c2.167,6.333 1.5,29.833 0.7500000000000001,45.333 c-8.5,15.25 -40,24 -48,27.5 c2.042,1.6550000000000002 10.695,6.598 20.857,9.508 C28.19958569335938,85.89958569335937 33.779585693359365,86.85458569335938 39.07358569335935,86.57358569335938 z" id="svg_1" class="" stroke="#000000" stroke-opacity="1"/></svg>