<svg xmlns="http://www.w3.org/2000/svg" width="99.6153767151236" height="107.40658582879212">
<path fill="#FFFFFF" fill-opacity="1" d="M92.26488106584554,64.1449751300811 c-1.167,-4.167 -9.666,-14.833 -16.333,-21.833 s-7.833,-11.333 -12.5,-18.667 S56.09888106584549,8.977975130081177 54.09888106584549,3.4779751300811768 c-13,-6.25 -44,10.084 -50,23.667 c1,8.166 12,15 15,16.5 s3,4.167 3.833,7 s2.834,10.667 3.834,21 s6.25,15.749 8.666,17.666 s2.834,3 3.6670000000000007,4.667 s3.417,6.083 11.167,9.75 s14.999,-1.167 16.749,-4.75 c4.5,4.5 11.084,0.4160000000000003 12.25,-2.084 c4.916,1.416 7.834,-3.25 7.917,-5.166 c1.5830000000000002,0.3340000000000006 3.584,-1.082 4.25,-2.582 c0.8330000000000006,0.3340000000000006 2.5,0.6660000000000011 5,-3.334 S93.43188106584546,68.31197513008124 92.26488106584554,64.1449751300811 z" id="svg_1" class="" stroke="#000000" stroke-opacity="1"/></svg>