<svg xmlns="http://www.w3.org/2000/svg" width="141.01098493993612" height="337.2417493741184">
<path fill="#FFFFFF" fill-opacity="1" d="M23.270727508544894,83.6719907836914 c-7.872,9.216 -14.301,18.044 -18.101,25.734 c1.167,0.7500000000000004 3.083,5.083 4.333,8.083 s1,20.75 -0.25,31.5 s1.5,59.75 3.75,71 s8.417,55.334 10.084,67.001 s5.166,31.5 7.166,39.833 c36.334,25.833 52.479,-20.023 89.334,-33.168 c5.667,-10 13.999,-27.333 15.999,-52.333 c0.8740000000000004,-10.926 1.6030000000000002,-27.168 0.8240000000000004,-43.078 c-1.002,-20.493 -3.8440000000000003,-40.436 -5.157,-47.754 c-2.333,-13 -14.834,-82.834 -17,-92.667 s-4.333,-40 -5.333,-53.666 C98.23372750854492,12.62599078369135 51.483727508544916,50.64099078369145 23.270727508544894,83.6719907836914 z" id="svg_1" class="" stroke="#000000" stroke-opacity="1"/></svg>