<svg xmlns="http://www.w3.org/2000/svg" width="88.62636165506001" height="255.91208380072771">
<path fill="#FFFFFF" fill-opacity="1" d="M11.730757296085358,13.185617813110298 c1.167,2.833 -1.25,16.416 -4.25,33.916 s-4.083,48.751 -3.083,56.751 s9.667,28.833 11.833,35 s0.6670000000000009,8.833 2,20.833 s7.167,47.334 9,59 s1.5,21 -0.6670000000000009,27.167 C33.23075729608536,241.35161781311035 69.23075729608536,238.85161781311035 72.73075729608536,254.35161781311035 c-0.7500000000000007,-4.25 -1.75,-10 -1,-22.25 s5,-60.25 8.25,-87.75 s6.75,-82 4.5,-96.5 s-3.5,-32 -3.5,-43.5 C72.73075729608536,60.01861781311038 29.14775729608533,31.352617813110328 11.730757296085358,13.185617813110298 z" id="svg_1" class="" stroke="#000000" stroke-opacity="1"/></svg>