<svg xmlns="http://www.w3.org/2000/svg" width="114.59339949929495" height="149.68131569856712">
<path fill="#FFFFFF" fill-opacity="1" d="M101.78844451904297,33.656578063964844 c-2.75,-3.75 -17.5,-11.5 -21.75,-14.5 c-2.125,-1.5 -7.938,-4.375 -14.281,-7.375 S52.53844451904297,5.656578063964844 48.28844451904297,3.6565780639648438 c-8.417,-0.5840000000000004 -30,7.584 -44.875,19.5 c1,1.75 -0.8750000000000004,7.125 0.125,16.25 s4.125,23.25 6.375,32.125 s7,18.375 8.5,22.875 s9.403,29.364 12.625,32 c2.75,2.25 7.5,0.7500000000000004 8.25,-2.75 s-1.625,-10.875 -2.5,-14.125 s-5.625,-19.25 -6.5,-21.75 s-2,-5.125 -0.25,-5.125 s2.125,2.75 3.25,5.625 s5.875,19.5 6.875,24.125 s4.5,17 6.25,21.75 s5,10 9,9.75 s4.875,-4.75 5.125,-8.375 s-5.875,-23.5 -6.375,-27.625 s-5.375,-19.25 -6.125,-21.25 s-1.375,-5 0.6250000000000004,-5.125 s2.875,5.625 3.75,8.625 s9.75,31.875 10.25,35.5 s2.625,14.5 6,17.75 c2.744,2.6430000000000002 5.625,3.875 8.625,0.8750000000000004 s2.25,-10 0.8750000000000004,-15.25 s-4.625,-21.125 -5.5,-25 s-6.375,-20.875 -7.25,-24 s-2.125,-5.375 -1.125,-5.75 s2.25,1.125 3.5,5.25 s6.625,20.5 8.375,25.5 s1.5,11.625 4.125,17.375 s7,7.625 10.625,7.125 s4.277,-7.391 4.375,-10.125 s-4.75,-20.5 -6.25,-27.375 s-5.25,-16.625 -6.5,-23 s-7.375,-23.375 -8.625,-26 s-0.6250000000000004,-4.75 2.5,-3.875 s9.25,2.625 13,7.625 s10.875,6.75 13.375,7 s8.5,0.3750000000000002 9.25,-6.375 S104.53844451904297,37.406578063964844 101.78844451904297,33.656578063964844 z" id="svg_1" class="" stroke="#000000" stroke-opacity="1"/></svg>